<?xml version="1.0" encoding="UTF-8"?>
<svg version="1.1" xmlns="http://www.w3.org/2000/svg" width="1024" height="1024">
<path d="M0 0 C337.92 0 675.84 0 1024 0 C1024 337.92 1024 675.84 1024 1024 C686.08 1024 348.16 1024 0 1024 C0 686.08 0 348.16 0 0 Z " fill="#FDFEFE" transform="translate(0,0)"/>
<path d="M0 0 C-1.63099845 4.86454771 -4.37598932 8.74423345 -7.25 12.9375 C-14.38272445 23.48944154 -21.19883048 34.23246046 -28 45 C-29.04422761 46.65106901 -30.08849685 48.30211168 -31.1328125 49.953125 C-33.10437492 53.07115225 -35.07260846 56.19124913 -37.0390625 59.3125 C-39.10589577 62.59063876 -41.18594541 65.85997988 -43.2734375 69.125 C-43.81339355 69.97231689 -44.35334961 70.81963379 -44.90966797 71.69262695 C-45.9342226 73.29992259 -46.9616715 74.9053788 -47.99267578 76.50854492 C-50.986192 81.21389744 -53.5855083 85.97170715 -56 91 C-56.66 91 -57.32 91 -58 91 C-58.84535147 86.66892266 -59.67410622 82.33482625 -60.5 78 C-60.73847656 76.77925781 -60.97695313 75.55851562 -61.22265625 74.30078125 C-62.3960206 68.09871256 -63.31569293 62.31385852 -63 56 C-81.68014609 69.30697331 -99.60600086 83.19816552 -116.50390625 98.72265625 C-118.72374551 100.7479556 -120.97393516 102.72597771 -123.25 104.6875 C-126.35603546 107.38318525 -129.25195854 110.22709865 -132.13012695 113.16259766 C-133.91278978 114.9143042 -135.75058477 116.53957198 -137.65234375 118.16015625 C-142.32350951 122.22311409 -146.69747174 126.55025786 -151.0625 130.9375 C-151.82626953 131.69740234 -152.59003906 132.45730469 -153.37695312 133.24023438 C-157.54793545 137.41835268 -161.54708671 141.6832363 -165.39819336 146.1574707 C-167.317138 148.36479812 -169.31253419 150.48873417 -171.32226562 152.61303711 C-176.48581717 158.08120994 -181.26573162 163.72961198 -185.84790039 169.69116211 C-189.1584853 173.98296942 -192.62605358 178.10231146 -196.1875 182.1875 C-205.12453619 192.38974446 -205.12453619 192.38974446 -212 204 C-212.66 204 -213.32 204 -214 204 C-214.21914063 204.65742188 -214.43828125 205.31484375 -214.6640625 205.9921875 C-216.45793395 210.03102089 -218.88363281 213.48646895 -221.375 217.125 C-222.47020354 218.75292931 -223.56391057 220.38186624 -224.65625 222.01171875 C-225.21441406 222.84364746 -225.77257812 223.67557617 -226.34765625 224.53271484 C-236.77805799 240.10742524 -245.63746287 256.23082535 -254 273 C-254.3909082 273.77923828 -254.78181641 274.55847656 -255.18457031 275.36132812 C-265.78057815 296.63524531 -273.170147 318.82973363 -273.24023438 342.74121094 C-273.24990881 344.73124207 -273.28110265 346.72113055 -273.3125 348.7109375 C-273.34431748 356.64939934 -272.58008465 363.48929372 -270 371 C-269.70971924 371.88510254 -269.41943848 372.77020508 -269.12036133 373.68212891 C-266.15595529 382.41677951 -260.42911162 389.58616906 -253 395 C-252.01 395.33 -251.02 395.66 -250 396 C-249.90976562 395.00613281 -249.81953125 394.01226563 -249.7265625 392.98828125 C-249.0958219 388.61595226 -247.39821428 385.07876831 -245.375 381.1875 C-245.02034668 380.49116455 -244.66569336 379.7948291 -244.30029297 379.07739258 C-241.32865974 373.36622297 -237.87406551 368.14098963 -234 363 C-233.34 362.01 -232.68 361.02 -232 360 C-242.56 360 -253.12 360 -264 360 C-265.41659703 354.33361186 -265.22499389 348.82017236 -265.25 343 C-265.270625 341.83082031 -265.29125 340.66164063 -265.3125 339.45703125 C-265.37727979 324.86538328 -261.39804212 315.71009027 -255 302 C-241.47 302 -227.94 302 -214 302 C-215.54465107 305.86162769 -217.17471054 309.24848186 -219.1953125 312.83984375 C-220.23131615 315.62096036 -220.05172593 318.05337939 -220 321 C-215.95857785 321.11662261 -211.91759135 321.1873935 -207.875 321.25 C-206.16183594 321.30027344 -206.16183594 321.30027344 -204.4140625 321.3515625 C-199.61221475 321.40739794 -195.94883097 321.41179689 -191.5078125 319.484375 C-186.1594062 314.18595381 -182.94452949 307.17856394 -179.64453125 300.484375 C-179.25682053 299.70612366 -178.8691098 298.92787231 -178.46965027 298.1260376 C-177.24678468 295.66923306 -176.02954118 293.20969411 -174.8125 290.75 C-173.98540025 289.08575147 -173.1579294 287.42168732 -172.33007812 285.7578125 C-170.5133643 282.10486091 -168.70017996 278.45018325 -166.89021301 274.79388428 C-165.93081105 272.86057609 -164.96607115 270.92998304 -164 269 C-164.6712793 269.00444122 -165.34255859 269.00888245 -166.03417969 269.01345825 C-173.04245874 269.05782289 -180.05069767 269.08792094 -187.05908203 269.10986328 C-189.67205425 269.11989948 -192.28501531 269.13353136 -194.89794922 269.15087891 C-198.66116092 269.17523163 -202.42422367 269.18650721 -206.1875 269.1953125 C-207.93015137 269.21079636 -207.93015137 269.21079636 -209.70800781 269.22659302 C-224.60749575 269.22863815 -224.60749575 269.22863815 -228.97119141 265.16381836 C-231.20401241 260.46768819 -230.74750327 255.37543015 -229.21191406 250.49560547 C-228.11591555 247.91393142 -226.90870498 245.43107688 -225.625 242.9375 C-225.17237793 242.02846924 -224.71975586 241.11943848 -224.25341797 240.18286133 C-217.15958572 226.13156944 -209.12921702 213.27335865 -199.45068359 200.86376953 C-198.06520497 199.08377225 -196.69573754 197.29280353 -195.33203125 195.49609375 C-187.42570515 185.09582586 -179.13230613 175.01721637 -170.6328125 165.09765625 C-168.98351572 163.17189119 -167.38627396 161.23011236 -165.8046875 159.24609375 C-165.14726562 158.44300781 -164.48984375 157.63992188 -163.8125 156.8125 C-163.26207031 156.11769531 -162.71164062 155.42289063 -162.14453125 154.70703125 C-156.96430299 150.5836073 -149.81802729 150.7118978 -143.47265625 150.77294922 C-142.66194168 150.77265717 -141.85122711 150.77236511 -141.01594543 150.77206421 C-138.36468399 150.77344569 -135.7137117 150.78895056 -133.0625 150.8046875 C-131.21305495 150.80842184 -129.3636079 150.81126682 -127.51416016 150.81326294 C-122.6677292 150.82086623 -117.82141984 150.84048608 -112.97503662 150.8626709 C-108.02113489 150.88320078 -103.06721334 150.89227988 -98.11328125 150.90234375 C-88.40880101 150.92373531 -78.70441065 150.95783102 -69 151 C-70.36893849 154.46048626 -71.83316889 157.82076538 -73.4609375 161.16796875 C-73.93273437 162.14443359 -74.40453125 163.12089844 -74.890625 164.12695312 C-75.87105199 166.14843878 -76.85279793 168.16928533 -77.8359375 170.18945312 C-78.5475 171.66381836 -78.5475 171.66381836 -79.2734375 173.16796875 C-79.70060059 174.04735107 -80.12776367 174.9267334 -80.56787109 175.83276367 C-82.52625933 180.16385309 -84.2616193 184.57683531 -86 189 C-86.81130875 189.00142502 -87.62261749 189.00285004 -88.45851135 189.00431824 C-96.12376549 189.02218612 -103.78835051 189.06391071 -111.45330906 189.13209057 C-115.39350989 189.16630645 -119.33332524 189.19146202 -123.27368164 189.19555664 C-127.08011681 189.19985138 -130.88568322 189.22840947 -134.69184685 189.27343178 C-136.14016589 189.28636959 -137.58858909 189.29072763 -139.03695869 189.28615379 C-150.03785759 189.19476999 -150.03785759 189.19476999 -159 195 C-160.58432774 197.37185146 -161.79018333 199.76593336 -162.9375 202.375 C-163.60026726 203.7993885 -164.2657045 205.22253723 -164.93359375 206.64453125 C-165.26858887 207.36592285 -165.60358398 208.08731445 -165.94873047 208.83056641 C-166.99027961 210.97994069 -168.11163499 213.05681524 -169.28515625 215.13671875 C-169.65584229 215.79687988 -170.02652832 216.45704102 -170.40844727 217.13720703 C-171.11592178 218.38505853 -171.83329827 219.62736818 -172.56225586 220.86279297 C-174.93706346 225.1145901 -175.13398022 228.20201137 -175 233 C-174.33680756 233.00142502 -173.67361511 233.00285004 -172.99032593 233.00431824 C-166.07923173 233.02402535 -159.16901955 233.07832161 -152.25830078 233.15258789 C-149.68024018 233.17576548 -147.10208492 233.190163 -144.52392578 233.19555664 C-140.81482977 233.20484725 -137.10722218 233.24584512 -133.3984375 233.29296875 C-132.24822113 233.2890361 -131.09800476 233.28510345 -129.91293335 233.28105164 C-120.97249857 233.44356031 -120.97249857 233.44356031 -117.27270508 236.41699219 C-114.19717963 239.91243308 -114.19717963 239.91243308 -114.3125 243.0625 C-114.77563372 249.21412393 -117.39031888 254.49993723 -120 260 C-120.77871905 261.66402824 -121.55735911 263.32809344 -122.3359375 264.9921875 C-124.53504436 269.67219304 -126.75983682 274.33952323 -129 279 C-128.13503906 278.61070312 -127.27007813 278.22140625 -126.37890625 277.8203125 C-113.73292393 272.18288479 -100.88763995 267.05616833 -88 262 C-86.71923584 261.49726562 -86.71923584 261.49726562 -85.41259766 260.984375 C-83.21572518 260.12688167 -81.01546322 259.2792032 -78.8125 258.4375 C-77.62269531 257.98246094 -76.43289063 257.52742188 -75.20703125 257.05859375 C-72.12931564 256.04268519 -69.20700622 255.43311617 -66 255 C-69.0811629 258.35125533 -72.68195713 259.76582975 -76.8125 261.5 C-96.33292701 269.97247645 -114.76269189 280.06081466 -133 291 C-133.84111328 291.50063965 -134.68222656 292.0012793 -135.54882812 292.51708984 C-175.71850534 316.44431634 -227.97306273 350.82627972 -241.38671875 398.39453125 C-242.96818438 407.69193745 -242.82686472 417.74685593 -241 427 C-245.97972375 426.43987699 -250.02022953 424.82089274 -254.4375 422.5625 C-255.47813599 422.03450806 -255.47813599 422.03450806 -256.53979492 421.49584961 C-288.64034614 404.80385384 -313.40793802 378.27602549 -325.6953125 344.16796875 C-327.15326285 340.62785579 -328.97814523 337.40184409 -330.9375 334.125 C-335.13078295 327.05990021 -338.20747958 319.71321164 -341 312 C-341.25523437 311.31454102 -341.51046875 310.62908203 -341.7734375 309.92285156 C-350.05306894 287.53300664 -353.43709404 263.74481342 -353.375 239.9375 C-353.37478851 239.17953125 -353.37457703 238.4215625 -353.37435913 237.640625 C-353.33781904 224.42938978 -352.10133453 211.87471599 -349 199 C-348.68724121 197.67766357 -348.68724121 197.67766357 -348.36816406 196.32861328 C-346.372064 188.02672069 -344.15063675 179.94205602 -341 172 C-340.70150146 171.24452881 -340.40300293 170.48905762 -340.09545898 169.71069336 C-326.4388586 135.68772139 -305.02553166 104.71247852 -276 82 C-275.4534375 81.57170898 -274.906875 81.14341797 -274.34375 80.70214844 C-247.49032302 59.84496964 -215.68482607 45.16783836 -182 40 C-180.91203125 39.82412354 -179.8240625 39.64824707 -178.703125 39.46704102 C-168.75961075 37.98014184 -159.03729743 37.64603802 -149 37.6875 C-147.79774277 37.6877417 -147.79774277 37.6877417 -146.57119751 37.68798828 C-133.19726797 37.70662489 -120.19013946 38.67964039 -107 41 C-107 41.66 -107 42.32 -107 43 C-109.55435098 44.66588108 -112.11410684 46.22195387 -114.75 47.75 C-120.04766296 50.84496714 -125.12285858 54.00011513 -129.9453125 57.8046875 C-140.01248356 65.68730245 -146.66870777 69.24123235 -159.47265625 68.96484375 C-182.86650832 68.58162033 -207.69283087 76.82241703 -228.06738281 87.9453125 C-230.06381631 89.03482649 -232.07410543 90.09548316 -234.0859375 91.15625 C-247.12178341 98.1406783 -258.25969037 106.82584623 -269 117 C-269.94488281 117.88042969 -270.88976562 118.76085937 -271.86328125 119.66796875 C-301.34225733 147.70718431 -320.20740344 189.28973957 -322.19018555 229.89477539 C-322.25381536 233.25191738 -322.28166471 236.60172408 -322.26074219 239.95898438 C-322.25000526 241.99899995 -322.26072424 244.03813547 -322.2734375 246.078125 C-322.2858601 256.95247818 -321.68768113 267.69151886 -318 278 C-317.79020508 277.47905762 -317.58041016 276.95811523 -317.36425781 276.42138672 C-309.44635851 256.94063876 -299.92033019 238.35086261 -288 221 C-287.54125488 220.33162109 -287.08250977 219.66324219 -286.60986328 218.97460938 C-276.77114765 204.71447291 -266.31513706 191.11646491 -255 178 C-254.04287109 176.89011719 -254.04287109 176.89011719 -253.06640625 175.7578125 C-251.38876202 173.82832791 -249.69842452 171.91121119 -248 170 C-247.36191406 169.28070313 -246.72382813 168.56140625 -246.06640625 167.8203125 C-243.7253823 165.20008386 -241.36635351 162.59738802 -239 160 C-238.47986328 159.42797852 -237.95972656 158.85595703 -237.42382812 158.26660156 C-230.44099509 150.60970314 -223.33486835 143.27300795 -215.61328125 136.359375 C-213.41935366 134.37860928 -211.31793276 132.35994494 -209.25 130.25 C-205.67347598 126.62226084 -201.8673559 123.31307688 -198 120 C-196.50339844 118.70449219 -196.50339844 118.70449219 -194.9765625 117.3828125 C-180.51768011 104.88750819 -165.82297183 92.88543107 -150.32910156 81.68945312 C-148.11309378 80.08203448 -145.91035023 78.45814662 -143.7109375 76.828125 C-130.83657755 67.33522345 -117.45597457 58.6374874 -104 50 C-103.1121582 49.42926758 -102.22431641 48.85853516 -101.30957031 48.27050781 C-99.04427418 46.81881029 -96.77415069 45.37527629 -94.5 43.9375 C-93.85401855 43.52604736 -93.20803711 43.11459473 -92.54248047 42.69067383 C-88.23764104 40 -88.23764104 40 -86 40 C-86 39.34 -86 38.68 -86 38 C-86.71567139 37.87761963 -87.43134277 37.75523926 -88.16870117 37.62915039 C-91.05590424 36.98757737 -93.57138387 36.06685231 -96.30078125 34.93359375 C-97.76547852 34.3293457 -97.76547852 34.3293457 -99.25976562 33.71289062 C-100.26716797 33.29201172 -101.27457031 32.87113281 -102.3125 32.4375 C-103.33923828 32.01275391 -104.36597656 31.58800781 -105.42382812 31.15039062 C-107.95092341 30.10429072 -110.47620894 29.05404084 -113 28 C-113 27.34 -113 26.68 -113 26 C-92.8473267 21.03007403 -72.6314947 16.41670187 -52.36035156 11.95922852 C-47.72019602 10.93864497 -43.08033844 9.91675643 -38.44140625 8.890625 C-37.71995926 8.73185379 -36.99851227 8.57308258 -36.25520325 8.40950012 C-27.59149434 6.49011815 -19.00316154 4.27798148 -10.40625 2.08203125 C-9.3234375 1.80746094 -8.240625 1.53289062 -7.125 1.25 C-5.70574219 0.88648438 -5.70574219 0.88648438 -4.2578125 0.515625 C-2 0 -2 0 0 0 Z " fill="#214A7A" transform="translate(661,287)"/>
<path d="M0 0 C1.60279192 0.00015914 3.20558896 0.00585476 4.80834961 0.01586914 C5.65038437 0.01728409 6.49241913 0.01869904 7.35997009 0.02015686 C10.06024671 0.02577276 12.76044163 0.03832791 15.46069336 0.05102539 C17.28686404 0.05603834 19.11303602 0.06060161 20.93920898 0.06469727 C25.42556878 0.07574735 29.9118672 0.0930226 34.39819336 0.11352539 C34.5182373 0.72421875 34.63828125 1.33491211 34.76196289 1.96411133 C37.18232892 14.24581818 39.67822913 26.50580898 42.33569336 38.73852539 C44.44469642 48.48404933 46.45792008 58.24475999 48.36697388 68.03118896 C48.63583313 69.40939816 48.90589604 70.78737314 49.17721558 72.1651001 C49.55444927 74.08460824 49.92566854 76.0052954 50.29663086 77.92602539 C50.50980957 79.0255957 50.72298828 80.12516602 50.94262695 81.25805664 C51.39819336 84.11352539 51.39819336 84.11352539 51.39819336 88.11352539 C52.26573242 87.83379883 53.13327148 87.55407227 54.02709961 87.26586914 C63.44704985 84.32346052 72.98488858 81.93238175 82.599823 79.72390747 C84.00541826 79.4006992 85.41031351 79.07443124 86.81448364 78.74508667 C88.81556616 78.2774342 90.81912434 77.82252899 92.82397461 77.37133789 C94.57834839 76.97132568 94.57834839 76.97132568 96.36816406 76.56323242 C99.18028583 76.14586651 100.76446991 76.1545571 103.39819336 77.11352539 C102.19291992 77.4912207 100.98764648 77.86891602 99.74584961 78.25805664 C88.61764575 81.76271117 77.51858782 85.35524449 66.44259644 89.02133179 C65.01386656 89.4936626 63.58461761 89.96442664 62.15481567 90.4335022 C53.40588863 93.30635125 44.85543826 96.45450624 36.39819336 100.11352539 C33.33569336 101.36352539 33.33569336 101.36352539 30.27319336 102.61352539 C26.42298606 104.20601951 22.71786234 105.93875772 19.02319336 107.86352539 C15.47953057 109.68679705 12.42516673 110.79560644 8.39819336 111.11352539 C8.39819336 111.77352539 8.39819336 112.43352539 8.39819336 113.11352539 C7.80321045 113.33266602 7.20822754 113.55180664 6.59521484 113.77758789 C-0.13228296 116.34965504 -6.30156882 119.52724085 -12.53930664 123.11352539 C-13.53712158 123.68312988 -14.53493652 124.25273438 -15.56298828 124.83959961 C-25.08977256 130.32005746 -34.41462842 136.08264049 -43.60180664 142.11352539 C-44.29854492 142.56937012 -44.9952832 143.02521484 -45.71313477 143.49487305 C-56.20849635 150.40639197 -65.98619795 158.0307983 -75.60180664 166.11352539 C-76.38040039 166.7593457 -77.15899414 167.40516602 -77.96118164 168.07055664 C-96.2277972 183.58208349 -116.23912829 205.43386822 -119.60180664 230.11352539 C-120.28583117 240.20569065 -120.46425955 249.31288136 -113.71899414 257.35961914 C-104.84022657 266.0315337 -95.69888876 267.50628533 -83.76635742 267.40649414 C-42.48001164 266.43362001 -4.32526037 248.20082571 25.39819336 220.11352539 C26.11104492 219.5218457 26.82389648 218.93016602 27.55834961 218.32055664 C28.20674805 217.75723633 28.85514648 217.19391602 29.52319336 216.61352539 C30.08264648 216.14946289 30.64209961 215.68540039 31.21850586 215.20727539 C34.69531602 209.03651299 31.87190181 199.93109881 30.64819336 193.36352539 C30.470625 192.37215576 30.29305664 191.38078613 30.11010742 190.359375 C29.19785868 185.30633461 28.23770098 180.2640193 27.24194336 175.22680664 C27.05857422 174.29255859 26.87520508 173.35831055 26.6862793 172.39575195 C26.33781435 170.63445455 25.98215143 168.87455967 25.61791992 167.11645508 C25.45775391 166.31240234 25.29758789 165.50834961 25.13256836 164.67993164 C24.91938965 163.64267944 24.91938965 163.64267944 24.7019043 162.58447266 C24.27592523 159.11877001 24.39819336 155.60530903 24.39819336 152.11352539 C5.58819336 152.11352539 -13.22180664 152.11352539 -32.60180664 152.11352539 C-33.59180664 155.08352539 -34.58180664 158.05352539 -35.60180664 161.11352539 C-36.73160394 163.68638196 -37.87692381 166.21387606 -39.10180664 168.73852539 C-42.10586864 175.00901287 -44.93033493 181.30186652 -47.41430664 187.80102539 C-49.35594817 192.6995943 -51.69657617 197.3370284 -54.09008789 202.02758789 C-56.03032355 205.98827567 -57.69693122 210.03319988 -59.32836914 214.12915039 C-60.92238848 217.86482761 -62.78542662 221.48076535 -64.60180664 225.11352539 C-78.46180664 225.11352539 -92.32180664 225.11352539 -106.60180664 225.11352539 C-100.25163135 209.23808716 -93.38111311 195.51560486 -81.60180664 183.11352539 C-80.91344727 182.36973633 -80.22508789 181.62594727 -79.51586914 180.85961914 C-65.71061178 166.4627079 -48.29808715 154.88517738 -31.60180664 144.11352539 C-31.01592773 143.7305127 -30.43004883 143.3475 -29.82641602 142.95288086 C-20.6525717 136.96763017 -11.17403095 131.55440543 -1.60180664 126.23852539 C-1.01717651 125.91365143 -0.43254639 125.58877747 0.1697998 125.25405884 C5.92880102 122.05981835 11.69133029 118.89511796 17.60473633 115.99487305 C19.46599326 115.0802069 21.3094786 114.1354374 23.15209961 113.18383789 C46.69288149 101.11352539 46.69288149 101.11352539 54.39819336 101.11352539 C57.617206 113.33843051 60.17965833 125.64325668 62.58569336 138.05102539 C63.28312251 141.64434977 63.98563709 145.23662674 64.69116211 148.82836914 C64.84844284 149.64796616 65.00572357 150.46756317 65.16777039 151.31199646 C65.6176611 155.0202102 65.6176611 155.0202102 67.39819336 158.11352539 C74.94203051 139.03357988 79.0526347 119.0969469 79.96069336 98.61352539 C80.02546875 97.23680664 80.02546875 97.23680664 80.09155273 95.83227539 C80.19652792 93.59280478 80.29868584 91.35324447 80.39819336 89.11352539 C84.45783941 87.46058962 88.52137236 85.81742886 92.58569336 84.17602539 C93.73618164 83.70745117 94.88666992 83.23887695 96.07202148 82.75610352 C97.73974609 82.08417969 97.73974609 82.08417969 99.44116211 81.39868164 C100.97293091 80.7781189 100.97293091 80.7781189 102.53564453 80.14501953 C105.16227877 79.19853513 107.64977759 78.57490603 110.39819336 78.11352539 C110.88439823 97.57481042 110.43501132 115.97651679 106.39819336 135.11352539 C106.22690918 135.97268555 106.055625 136.8318457 105.87915039 137.71704102 C100.45717183 164.44671823 88.33817435 190.05234313 72.39819336 212.11352539 C71.6647168 213.13188477 70.93124023 214.15024414 70.17553711 215.19946289 C47.31666716 246.21681289 16.63671608 268.91778915 -18.60180664 284.11352539 C-19.61355957 284.55003418 -19.61355957 284.55003418 -20.64575195 284.99536133 C-49.24567823 297.0696216 -91.96869698 306.04526756 -121.60180664 294.11352539 C-132.50077685 289.55973138 -141.82417736 280.96365545 -146.60180664 270.11352539 C-149.19407796 263.17030456 -150.12461793 256.81595142 -150.03930664 249.42602539 C-150.02883301 248.46269287 -150.01835937 247.49936035 -150.00756836 246.50683594 C-149.45851527 224.72833604 -138.66650328 206.20673772 -124.60180664 190.11352539 C-123.89435303 189.29078125 -123.89435303 189.29078125 -123.17260742 188.45141602 C-115.69438928 179.81081991 -107.48269373 172.28789891 -98.60180664 165.11352539 C-98.05911133 164.67411621 -97.51641602 164.23470703 -96.95727539 163.78198242 C-88.53265938 157.01512996 -79.68275047 150.96041076 -70.60180664 145.11352539 C-69.64467773 144.49477539 -69.64467773 144.49477539 -68.66821289 143.86352539 C-54.45106044 134.70962442 -39.85505089 126.47266943 -24.50366211 119.3737793 C-19.53000296 117.06571461 -14.70779776 114.58553284 -9.91430664 111.92602539 C-2.45195409 107.8076708 5.35969178 104.90217771 13.39819336 102.11352539 C13.51913199 97.66628223 13.27337718 93.94026624 12.02319336 89.67602539 C10.03093151 82.24517195 9.22125104 74.74375423 8.39819336 67.11352539 C7.73819336 67.11352539 7.07819336 67.11352539 6.39819336 67.11352539 C5.84131836 68.96977539 5.84131836 68.96977539 5.27319336 70.86352539 C3.64086943 75.77582417 1.39255774 80.23380762 -0.97290039 84.82836914 C-3.77414373 90.47787908 -6.17458091 96.29506938 -8.60180664 102.11352539 C-4.14680664 101.12352539 -4.14680664 101.12352539 0.39819336 100.11352539 C-3.6454639 103.67194378 -8.12670188 104.76291448 -13.38696289 105.50805664 C-17.02495604 106.19321938 -20.2100686 107.34300188 -23.66430664 108.67602539 C-24.33751953 108.93343506 -25.01073242 109.19084473 -25.7043457 109.45605469 C-28.0055023 110.33674745 -30.30358921 111.22519269 -32.60180664 112.11352539 C-35.41009814 113.19321219 -38.21921878 114.27067453 -41.02929688 115.34570312 C-42.88529923 116.0560924 -44.74031235 116.7690726 -46.59423828 117.48486328 C-47.44751709 117.81220459 -48.3007959 118.1395459 -49.17993164 118.47680664 C-50.31543457 118.91440308 -50.31543457 118.91440308 -51.47387695 119.36083984 C-53.50051676 120.07769741 -55.50842774 120.63050638 -57.60180664 121.11352539 C-58.5539315 118.55721665 -58.67586177 117.34488012 -57.83251953 114.71020508 C-57.20978149 113.38617676 -57.20978149 113.38617676 -56.57446289 112.03540039 C-56.11587891 111.04725342 -55.65729492 110.05910645 -55.18481445 109.04101562 C-54.68304687 107.99244385 -54.1812793 106.94387207 -53.66430664 105.86352539 C-53.15867187 104.78466064 -52.65303711 103.7057959 -52.13208008 102.59423828 C-48.68173282 95.26907893 -45.10576668 88.01133907 -41.44555664 80.78930664 C-39.51649062 76.96897938 -37.66903647 73.11315407 -35.85180664 69.23852539 C-35.32071289 68.10672852 -34.78961914 66.97493164 -34.24243164 65.80883789 C-32.97921653 63.03559015 -31.85040804 60.22558941 -30.74243164 57.38696289 C-28.47288595 51.65684681 -25.80605702 46.14879482 -23.10180664 40.61352539 C-18.04905316 30.19365296 -13.15194115 19.71452178 -8.34790039 9.17797852 C-7.87094727 8.13577148 -7.39399414 7.09356445 -6.90258789 6.01977539 C-6.48146729 5.09487305 -6.06034668 4.1699707 -5.62646484 3.21704102 C-4.12268696 0.12994302 -4.12268696 0.12994302 0 0 Z " fill="#B0B2B4" transform="translate(605.601806640625,437.886474609375)"/>
<path d="M0 0 C-1.63099845 4.86454771 -4.37598932 8.74423345 -7.25 12.9375 C-14.38272445 23.48944154 -21.19883048 34.23246046 -28 45 C-29.04422761 46.65106901 -30.08849685 48.30211168 -31.1328125 49.953125 C-33.10437492 53.07115225 -35.07260846 56.19124913 -37.0390625 59.3125 C-39.10589577 62.59063876 -41.18594541 65.85997988 -43.2734375 69.125 C-43.81339355 69.97231689 -44.35334961 70.81963379 -44.90966797 71.69262695 C-45.9342226 73.29992259 -46.9616715 74.9053788 -47.99267578 76.50854492 C-50.986192 81.21389744 -53.5855083 85.97170715 -56 91 C-56.66 91 -57.32 91 -58 91 C-58.84535147 86.66892266 -59.67410622 82.33482625 -60.5 78 C-60.73847656 76.77925781 -60.97695313 75.55851562 -61.22265625 74.30078125 C-62.3960206 68.09871256 -63.31569293 62.31385852 -63 56 C-81.68014609 69.30697331 -99.60600086 83.19816552 -116.50390625 98.72265625 C-118.72374551 100.7479556 -120.97393516 102.72597771 -123.25 104.6875 C-126.35603546 107.38318525 -129.25195854 110.22709865 -132.13012695 113.16259766 C-133.91278978 114.9143042 -135.75058477 116.53957198 -137.65234375 118.16015625 C-142.32350951 122.22311409 -146.69747174 126.55025786 -151.0625 130.9375 C-151.82626953 131.69740234 -152.59003906 132.45730469 -153.37695312 133.24023438 C-157.54793545 137.41835268 -161.54708671 141.6832363 -165.39819336 146.1574707 C-167.317138 148.36479812 -169.31253419 150.48873417 -171.32226562 152.61303711 C-176.48581717 158.08120994 -181.26573162 163.72961198 -185.84790039 169.69116211 C-189.1584853 173.98296942 -192.62605358 178.10231146 -196.1875 182.1875 C-205.12453619 192.38974446 -205.12453619 192.38974446 -212 204 C-212.66 204 -213.32 204 -214 204 C-214.2475 204.721875 -214.495 205.44375 -214.75 206.1875 C-216.10983674 209.24713266 -217.82917754 211.4673738 -220 214 C-219.94972656 213.113125 -219.89945312 212.22625 -219.84765625 211.3125 C-220.64726002 207.95859639 -220.64726002 207.95859639 -222.94873047 206.6640625 C-225.73980569 205.32015203 -228.55688506 204.13970173 -231.4375 203 C-232.47052246 202.57356201 -233.50354492 202.14712402 -234.56787109 201.70776367 C-241.0250864 199.0808217 -247.53807061 196.59539489 -254.125 194.3125 C-254.85130615 194.05662109 -255.5776123 193.80074219 -256.32592773 193.53710938 C-260.24352925 192.25371707 -263.03142669 191.72604164 -267 193 C-258.65817695 181.50181147 -249.20327938 170.99051993 -239.51171875 160.62939453 C-238.00361602 159.0038975 -236.51502298 157.36255603 -235.03125 155.71484375 C-228.95682507 148.99279997 -222.62339539 142.7314113 -215.90625 136.65234375 C-213.59988615 134.54747674 -211.37172219 132.41639947 -209.1875 130.1875 C-205.63257959 126.5808089 -201.84444079 123.29344602 -198 120 C-196.50339844 118.70449219 -196.50339844 118.70449219 -194.9765625 117.3828125 C-180.51768011 104.88750819 -165.82297183 92.88543107 -150.32910156 81.68945312 C-148.11309378 80.08203448 -145.91035023 78.45814662 -143.7109375 76.828125 C-130.83657755 67.33522345 -117.45597457 58.6374874 -104 50 C-103.1121582 49.42926758 -102.22431641 48.85853516 -101.30957031 48.27050781 C-99.04427418 46.81881029 -96.77415069 45.37527629 -94.5 43.9375 C-93.85401855 43.52604736 -93.20803711 43.11459473 -92.54248047 42.69067383 C-88.23764104 40 -88.23764104 40 -86 40 C-86 39.34 -86 38.68 -86 38 C-86.71567139 37.87761963 -87.43134277 37.75523926 -88.16870117 37.62915039 C-91.05590424 36.98757737 -93.57138387 36.06685231 -96.30078125 34.93359375 C-97.76547852 34.3293457 -97.76547852 34.3293457 -99.25976562 33.71289062 C-100.26716797 33.29201172 -101.27457031 32.87113281 -102.3125 32.4375 C-103.33923828 32.01275391 -104.36597656 31.58800781 -105.42382812 31.15039062 C-107.95092341 30.10429072 -110.47620894 29.05404084 -113 28 C-113 27.34 -113 26.68 -113 26 C-92.8473267 21.03007403 -72.6314947 16.41670187 -52.36035156 11.95922852 C-47.72019602 10.93864497 -43.08033844 9.91675643 -38.44140625 8.890625 C-37.71995926 8.73185379 -36.99851227 8.57308258 -36.25520325 8.40950012 C-27.59149434 6.49011815 -19.00316154 4.27798148 -10.40625 2.08203125 C-9.3234375 1.80746094 -8.240625 1.53289062 -7.125 1.25 C-5.70574219 0.88648438 -5.70574219 0.88648438 -4.2578125 0.515625 C-2 0 -2 0 0 0 Z " fill="#295D8C" transform="translate(661,287)"/>
<path d="M0 0 C1.20225723 0.0002417 1.20225723 0.0002417 2.42880249 0.00048828 C15.80273203 0.01912489 28.80986054 0.99214039 42 3.3125 C42 3.9725 42 4.6325 42 5.3125 C39.44564902 6.97838108 36.88589316 8.53445387 34.25 10.0625 C28.95233704 13.15746714 23.87714142 16.31261513 19.0546875 20.1171875 C8.98751644 27.99980245 2.33129223 31.55373235 -10.47265625 31.27734375 C-33.86650832 30.89412033 -58.69283087 39.13491703 -79.06738281 50.2578125 C-81.06381631 51.34732649 -83.07410543 52.40798316 -85.0859375 53.46875 C-98.12178341 60.4531783 -109.25969037 69.13834623 -120 79.3125 C-120.94488281 80.19292969 -121.88976562 81.07335937 -122.86328125 81.98046875 C-141.12913303 99.3542118 -156.60221919 123.10510206 -164 147.3125 C-164.495 146.3225 -164.495 146.3225 -165 145.3125 C-174.9 145.3125 -184.8 145.3125 -195 145.3125 C-189.0273382 121.42185279 -177.01884226 99.70666615 -162 80.3125 C-161.35546875 79.47589844 -160.7109375 78.63929688 -160.046875 77.77734375 C-150.21113272 65.25032553 -139.54006806 54.12510326 -127 44.3125 C-126.4534375 43.88420898 -125.906875 43.45591797 -125.34375 43.01464844 C-98.49032302 22.15746964 -66.68482607 7.48033836 -33 2.3125 C-31.91203125 2.13662354 -30.8240625 1.96074707 -29.703125 1.77954102 C-19.75961075 0.29264184 -10.03729743 -0.04146198 0 0 Z " fill="#2D5A88" transform="translate(512,324.6875)"/>
<path d="M0 0 C0.81071457 -0.00029205 1.62142914 -0.00058411 2.45671082 -0.00088501 C5.10797226 0.00049647 7.75894455 0.01600134 10.41015625 0.03173828 C12.2596013 0.03547262 14.10904835 0.03831761 15.95849609 0.04031372 C20.80492705 0.04791701 25.65123641 0.06753686 30.49761963 0.08972168 C35.45152136 0.11025156 40.40544291 0.11933066 45.359375 0.12939453 C55.06385524 0.15078609 64.7682456 0.1848818 74.47265625 0.22705078 C73.10371776 3.68753704 71.63948736 7.04781616 70.01171875 10.39501953 C69.53992188 11.37148438 69.068125 12.34794922 68.58203125 13.35400391 C67.60160426 15.37548956 66.61985832 17.39633611 65.63671875 19.41650391 C65.16234375 20.39941406 64.68796875 21.38232422 64.19921875 22.39501953 C63.77205566 23.27440186 63.34489258 24.15378418 62.90478516 25.05981445 C60.94639692 29.39090387 59.21103695 33.80388609 57.47265625 38.22705078 C56.6613475 38.2284758 55.85003876 38.22990082 55.0141449 38.23136902 C47.34889076 38.2492369 39.68430574 38.29096149 32.01934719 38.35914135 C28.07914636 38.39335723 24.13933101 38.4185128 20.19897461 38.42260742 C16.39253944 38.42690217 12.58697303 38.45546025 8.7808094 38.50048256 C7.33249036 38.51342037 5.88406716 38.51777841 4.43569756 38.51320457 C-6.56520134 38.42182078 -6.56520134 38.42182078 -15.52734375 44.22705078 C-17.11167149 46.59890224 -18.31752708 48.99298414 -19.46484375 51.60205078 C-20.12761101 53.02643928 -20.79304825 54.44958801 -21.4609375 55.87158203 C-21.79593262 56.59297363 -22.13092773 57.31436523 -22.47607422 58.05761719 C-23.51762336 60.20699147 -24.63897874 62.28386602 -25.8125 64.36376953 C-26.18318604 65.02393066 -26.55387207 65.6840918 -26.93579102 66.36425781 C-27.64326553 67.61210931 -28.36064202 68.85441897 -29.08959961 70.08984375 C-31.46440721 74.34164088 -31.66132397 77.42906216 -31.52734375 82.22705078 C-30.86415131 82.2284758 -30.20095886 82.22990082 -29.51766968 82.23136902 C-22.60657548 82.25107613 -15.6963633 82.30537239 -8.78564453 82.37963867 C-6.20758393 82.40281626 -3.62942867 82.41721378 -1.05126953 82.42260742 C2.65782648 82.43189803 6.36543407 82.47289591 10.07421875 82.52001953 C11.22443512 82.51608688 12.37465149 82.51215424 13.5597229 82.50810242 C22.50015768 82.67061109 22.50015768 82.67061109 26.19995117 85.64404297 C29.27547662 89.13948386 29.27547662 89.13948386 29.16015625 92.28955078 C28.69702253 98.44117471 26.08233737 103.72698801 23.47265625 109.22705078 C22.6939372 110.89107902 21.91529714 112.55514423 21.13671875 114.21923828 C18.93761189 118.89924382 16.71281943 123.56657401 14.47265625 128.22705078 C15.77009766 127.64310547 15.77009766 127.64310547 17.09375 127.04736328 C29.73973232 121.40993557 42.5850163 116.28321912 55.47265625 111.22705078 C56.32649902 110.89189453 57.1803418 110.55673828 58.06005859 110.21142578 C60.25693107 109.35393245 62.45719303 108.50625398 64.66015625 107.66455078 C65.84996094 107.20951172 67.03976562 106.75447266 68.265625 106.28564453 C71.34334061 105.26973597 74.26565003 104.66016695 77.47265625 104.22705078 C74.39149335 107.57830611 70.79069912 108.99288054 66.66015625 110.72705078 C48.94383362 118.41648945 32.12615154 127.38357889 15.53515625 137.25830078 C11.90925259 139.41051845 8.28375438 141.42450437 4.47265625 143.22705078 C4.70210937 142.38916016 4.9315625 141.55126953 5.16796875 140.68798828 C5.54890624 136.36092912 4.30053396 133.58982169 2.34765625 129.85205078 C1.99219727 129.15942139 1.63673828 128.46679199 1.27050781 127.75317383 C-3.23357479 119.39155024 -9.25598666 112.30732204 -15.52734375 105.22705078 C-16.07036133 104.61104004 -16.61337891 103.9950293 -17.17285156 103.36035156 C-22.61927468 97.22281661 -28.15937202 91.42539505 -34.52734375 86.22705078 C-35.28917969 85.45232422 -36.05101562 84.67759766 -36.8359375 83.87939453 C-39.62562761 81.13019339 -42.55283061 78.67314503 -45.65234375 76.28955078 C-46.21348877 75.85642578 -46.77463379 75.42330078 -47.3527832 74.97705078 C-51.79266801 71.62477827 -56.40888742 68.88846949 -61.3828125 66.38330078 C-63.52734375 65.22705078 -63.52734375 65.22705078 -65.52734375 63.22705078 C-58.47190831 53.3022191 -51.34844887 43.56433943 -43.52734375 34.22705078 C-42.23154351 32.60534504 -40.93987827 30.98032676 -39.65234375 29.35205078 C-35.15815865 23.72089056 -30.51317921 18.22618645 -25.82177734 12.75927734 C-24.63163053 11.35049549 -23.47795177 9.91111697 -22.328125 8.46923828 C-21.67199219 7.66744141 -21.01585937 6.86564453 -20.33984375 6.03955078 C-19.51419922 4.99734375 -19.51419922 4.99734375 -18.671875 3.93408203 C-13.49164674 -0.18934192 -6.34537104 -0.06105141 0 0 Z " fill="#2B7AAB" transform="translate(517.52734375,437.77294921875)"/>
<path d="M0 0 C4.36841727 1.64104076 7.74908497 3.85081201 11.375 6.75 C11.97932861 7.23025635 12.58365723 7.7105127 13.20629883 8.20532227 C52.01738107 39.5325861 83.42523112 86.46206542 89 137 C89.10563896 140.01358112 89.0719039 142.98303236 89 146 C85.29172802 146.64618593 81.58337158 147.29188591 77.875 147.9375 C76.30492187 148.21110352 76.30492187 148.21110352 74.703125 148.49023438 C69.80465032 149.34281699 64.90634225 150.19359427 60 151 C59.85751831 150.14172607 59.85751831 150.14172607 59.7121582 149.26611328 C53.99420719 115.27060392 42.67605323 86.08461185 21 59 C20.51176758 58.38930664 20.02353516 57.77861328 19.52050781 57.14941406 C14.16185907 50.50613303 8.70187969 44.32854369 2 39 C0.74692768 37.98364984 -0.50562534 36.96665927 -1.7578125 35.94921875 C-4.4345362 33.78467216 -7.11349796 31.62310654 -9.8046875 29.4765625 C-10.37171387 29.02361816 -10.93874023 28.57067383 -11.52294922 28.10400391 C-13.02361502 26.91432999 -13.02361502 26.91432999 -15 26 C-13.65152264 22.36707683 -12.01515006 19.20068097 -9.9609375 15.91796875 C-9.38085938 14.98662109 -8.80078125 14.05527344 -8.203125 13.09570312 C-7.59984375 12.13599609 -6.9965625 11.17628906 -6.375 10.1875 C-5.45847656 8.71893555 -5.45847656 8.71893555 -4.5234375 7.22070312 C-3.01918285 4.81154528 -1.5112726 2.40475932 0 0 Z " fill="#213C6B" transform="translate(625,360)"/>
<path d="M0 0 C-5.95182598 3.03893232 -11.95615528 5.96179446 -18 8.8125 C-18.98818726 9.28345093 -18.98818726 9.28345093 -19.99633789 9.76391602 C-24.76669172 12 -24.76669172 12 -27 12 C-26.51953125 9.69921875 -26.51953125 9.69921875 -25 7 C-22.36727825 5.52086538 -19.56761484 4.69073051 -16.6875 3.8125 C-15.17036314 3.31965571 -13.65343073 2.82618155 -12.13671875 2.33203125 C-11.41919434 2.10725098 -10.70166992 1.8824707 -9.96240234 1.65087891 C-7.82378329 0.97379289 -7.82378329 0.97379289 -5.14453125 -0.23828125 C-3 -1 -3 -1 0 0 Z " fill="#307CAC" transform="translate(595,543)"/>
<path d="M0 0 C-1.5024543 3.5432211 -3.56252265 5.77071524 -6.3125 8.4375 C-8.88457145 10.93938652 -11.42567355 13.44089676 -13.875 16.0625 C-16 18 -16 18 -19 18 C-2.63106796 0 -2.63106796 0 0 0 Z " fill="#3F6E97" transform="translate(376,378)"/>
<path d="M0 0 C0.99 0.33 1.98 0.66 3 1 C3.66 4.63 4.32 8.26 5 12 C4.01 12.495 4.01 12.495 3 13 C2.49242138 11.58603098 1.99425075 10.16868271 1.5 8.75 C1.08234375 7.56664062 1.08234375 7.56664062 0.65625 6.359375 C0 4 0 4 0 0 Z " fill="#203563" transform="translate(316,583)"/>
<path d="M0 0 C2.34770643 3.52155964 2.37669614 5.50771843 2.625 9.6875 C2.69976562 10.86699219 2.77453125 12.04648437 2.8515625 13.26171875 C2.90054687 14.16535156 2.94953125 15.06898438 3 16 C2.34 16 1.68 16 1 16 C-0.12862175 10.63904667 -0.09688221 5.44693314 0 0 Z " fill="#1F3463" transform="translate(309,540)"/>
<path d="M0 0 C-1.5725165 0.89429374 -3.15853741 1.76487427 -4.75 2.625 C-5.63171875 3.11226562 -6.5134375 3.59953125 -7.421875 4.1015625 C-10 5 -10 5 -12.328125 4.1484375 C-12.87984375 3.76945313 -13.4315625 3.39046875 -14 3 C-12.23358317 2.3012307 -10.46167336 1.61633417 -8.6875 0.9375 C-7.20830078 0.36322266 -7.20830078 0.36322266 -5.69921875 -0.22265625 C-3 -1 -3 -1 0 0 Z " fill="#4787B0" transform="translate(595,543)"/>
<path d="M0 0 C2.93200474 2.85276137 5.64315404 5.65079784 8 9 C3.75177626 8.52797514 1.80010291 6.03344482 -1 3 C-0.67 2.01 -0.34 1.02 0 0 Z " fill="#273A6C" transform="translate(361,671)"/>
<path d="M0 0 C0.99 0 1.98 0 3 0 C1.8141763 3.37503669 0.72426311 5.64722731 -2 8 C-1.125 1.125 -1.125 1.125 0 0 Z " fill="#293A66" transform="translate(633,325)"/>
<path d="M0 0 C0.99 0.33 1.98 0.66 3 1 C0.03 3.475 0.03 3.475 -3 6 C-3 3 -3 3 -1.5 1.3125 C-0.7575 0.6628125 -0.7575 0.6628125 0 0 Z " fill="#466894" transform="translate(452,632)"/>
</svg>
